<?xml version="1.0" encoding="utf-8"?>
<!-- Generator: Adobe Illustrator 24.2.1, SVG Export Plug-In . SVG Version: 6.00 Build 0)  -->
<svg version="1.1" id="Capa_1" xmlns="http://www.w3.org/2000/svg" xmlns:xlink="http://www.w3.org/1999/xlink" x="0px" y="0px"
	 viewBox="0 0 512 512" style="enable-background:new 0 0 512 512;" xml:space="preserve">
<style type="text/css">
	.st0{fill:#2A7D2E;}
</style>
<g>
	<path class="st0" d="M85.2,300l70,212h201.6l70-212H271c0-6.4,0-123.5,0-120h75c41.4,0,75-33.6,75-75V90H316
		c-16.9,0-32.4,5.9-45,15.4c0-3,0-33.4,0-30.4c0-41.4-33.6-75-75-75H91v15c0,41.4,33.6,75,75,75h75v105.4
		c-12.6-9.5-28.1-15.4-45-15.4H91v15c0,41.4,33.6,75,75,75h75v30H85.2z"/>
</g>
</svg>
