<?xml version="1.0" encoding="utf-8"?>
<!-- Generator: Adobe Illustrator 24.2.1, SVG Export Plug-In . SVG Version: 6.00 Build 0)  -->
<svg version="1.1" id="Capa_1" xmlns="http://www.w3.org/2000/svg" xmlns:xlink="http://www.w3.org/1999/xlink" x="0px" y="0px"
	 viewBox="0 0 512 512" style="enable-background:new 0 0 512 512;" xml:space="preserve">
<style type="text/css">
	.st0{fill:#2A7D2E;}
</style>
<g>
	<path class="st0" d="M403.2,512H15c-8.3,0-15-6.7-15-15V362.1c0-3.1,1.5-6.1,4-8C23.2,339.7,46.1,332,70,332
		c34.4,0,66.4,15.9,87.2,43c7.5-2,15.1-3,22.8-3c20.6,0,40.7,7.1,56.7,20.1c11.6,9.5,20.7,21.8,26.4,35.5
		c14.8-10.1,32.4-15.6,50.6-15.6C366.7,412,409.1,457.9,403.2,512z"/>
	<path class="st0" d="M422.5,44.7l-69.3-40c-16.7-9.6-38.2-3.9-47.8,12.8l-20,34.6c-2.1,3.6-2.5,7.7-1.5,11.4l20.4,76L224.9,277
		l-47.6-27.5c-3.4-2-7.5-2.5-11.4-1.5c-3.8,1-7.1,3.5-9.1,7l-33.2,57.5c16.7,6.9,32,17,45,30c3.8-0.4,7.6-0.6,11.4-0.6
		c27.5,0,54.3,9.5,75.6,26.9c7.1,5.8,13.5,12.4,19.1,19.6c0.5-0.2,1-0.3,1.5-0.5l27.7-48c4.1-7.2,1.7-16.3-5.5-20.5L250.8,292
		l79.4-137.5l76-20.4c3.8-1,7.1-3.5,9.1-7l20-34.6C445,75.8,439.2,54.3,422.5,44.7L422.5,44.7z M331,123.2l-8.7-32.5l41.2,23.8
		L331,123.2z M409.3,77.5l-12.5,21.7l-77.9-45l12.5-21.7c1.4-2.4,4.4-3.2,6.8-1.8l69.3,40C409.9,72,410.7,75.1,409.3,77.5z"/>
	<path class="st0" d="M508.2,411.7C492.3,399,472.3,392,452,392c-21.6,0-41.9,7.6-57.8,21c3.1,2.8,6.1,5.8,8.9,8.9
		c22,24.5,33,57.2,30.3,90.1H497c8.3,0,15-6.7,15-15v-77.4C512,416.5,510.6,413.7,508.2,411.7L508.2,411.7z"/>
</g>
</svg>
